<?xml version="1.0" standalone="no"?>
<!DOCTYPE svg PUBLIC "-//W3C//DTD SVG 20010904//EN"
 "http://www.w3.org/TR/2001/REC-SVG-20010904/DTD/svg10.dtd">
<svg version="1.0" xmlns="http://www.w3.org/2000/svg"
 width="707.000000pt" height="347.000000pt" viewBox="0 0 707.000000 347.000000"
 preserveAspectRatio="xMidYMid meet">
<metadata>
Created by potrace 1.16, written by Peter Selinger 2001-2019
</metadata>
<g transform="translate(0.000000,347.000000) scale(0.100000,-0.100000)"
fill="#000000" stroke="none">
<path d="M0 1735 l0 -1735 3535 0 3535 0 0 1735 0 1735 -3535 0 -3535 0 0
-1735z m2019 679 c40 -33 41 -71 3 -107 -15 -15 -33 -27 -40 -27 -8 0 -12 -18
-12 -50 0 -47 -2 -50 -25 -50 -23 0 -25 -4 -25 -46 0 -39 5 -50 35 -78 41 -39
44 -58 10 -91 -30 -31 -71 -32 -96 -3 -28 31 -24 66 11 98 25 23 30 36 30 74
l0 46 -111 0 -110 0 -33 -35 c-39 -41 -71 -45 -110 -14 -54 43 -22 133 47 133
37 0 77 -26 77 -51 0 -10 30 -13 145 -13 l145 0 0 38 c0 31 -5 41 -25 50 -35
16 -59 66 -44 95 16 31 50 57 76 57 12 0 35 -12 52 -26z m-1094 -340 c8 -4 22
-19 31 -35 l15 -29 108 0 c104 0 109 1 125 25 25 39 51 48 85 31 30 -16 41
-34 41 -67 0 -27 -36 -59 -67 -59 -29 0 -63 25 -63 47 0 10 -25 13 -115 13
l-114 0 -15 -29 c-18 -33 -61 -52 -93 -40 -13 5 -32 23 -42 40 -20 33 -17 62
11 94 13 15 64 20 93 9z m3030 -15 c73 -13 120 -37 162 -81 102 -106 96 -282
-12 -377 -62 -54 -115 -72 -226 -78 l-99 -6 0 47 0 46 84 0 c94 0 137 14 178
57 35 37 48 73 48 134 0 56 -10 80 -49 122 -43 47 -72 57 -171 57 l-90 0 0 38
c0 21 3 42 7 45 10 11 103 8 168 -4z m-1101 -31 c8 -18 26 -64 40 -103 13 -38
39 -108 56 -155 18 -47 35 -96 40 -110 4 -14 17 -49 29 -78 l21 -53 -46 3 -46
3 -32 80 c-18 44 -44 114 -59 155 -14 41 -42 119 -61 174 -20 54 -36 102 -36
107 0 5 18 9 40 9 34 0 41 -4 54 -32z m726 -8 l0 -40 -79 0 c-155 0 -231 -63
-231 -192 0 -63 23 -111 68 -146 32 -24 46 -28 136 -32 l101 -5 3 -42 3 -43
-90 0 c-141 0 -230 41 -289 134 -31 49 -42 169 -22 231 17 53 85 123 145 151
42 20 66 24 153 24 l102 0 0 -40z m1198 3 l-3 -38 -195 0 -195 0 -3 38 -3 37
201 0 201 0 -3 -37z m610 0 l-3 -38 -110 -5 c-60 -3 -120 -11 -132 -18 -41
-23 -76 -80 -81 -132 l-5 -50 -43 0 c-43 0 -44 1 -44 33 0 62 21 109 69 157
67 67 130 89 254 89 l98 1 -3 -37z m592 -3 l0 -40 -100 0 c-67 0 -110 -5 -128
-14 -55 -29 -102 -103 -102 -162 0 -22 -4 -24 -45 -24 l-45 0 6 48 c4 26 18
68 32 95 50 93 139 135 290 136 l92 1 0 -40z m-4206 -99 c26 -24 26 -26 26
-183 0 -155 -1 -159 -25 -183 -24 -25 -27 -25 -188 -25 -221 0 -207 -14 -207
207 0 224 -11 213 217 210 145 -2 153 -3 177 -26z m952 -118 c-2 -18 -12 -47
-20 -65 -9 -18 -31 -71 -50 -118 l-34 -85 -41 -3 c-23 -2 -41 1 -41 5 0 5 30
83 66 173 36 91 71 176 76 190 10 25 11 24 30 -20 12 -28 18 -57 14 -77z m714
47 c10 -5 22 -23 28 -39 13 -37 -2 -69 -46 -94 l-32 -19 -36 36 c-30 30 -35
41 -30 64 13 51 69 77 116 52z m560 0 c10 -5 22 -23 28 -39 13 -37 -2 -69 -46
-94 l-32 -19 -36 36 c-30 30 -35 41 -30 64 13 51 69 77 116 52z m738 -52 l3
-38 -180 0 -181 0 0 33 c0 19 3 37 7 41 4 3 84 5 177 4 l171 -3 3 -37z m-3429
-13 c8 -8 14 -28 14 -45 0 -36 -17 -56 -55 -65 -21 -5 -33 -1 -53 19 -25 25
-31 26 -135 26 l-110 0 0 -82 c0 -81 1 -83 30 -100 53 -30 53 -106 0 -133 -37
-19 -74 -11 -100 22 -28 36 -25 67 11 97 17 14 35 26 40 26 5 0 9 43 9 95 l0
95 115 0 c73 0 115 4 115 10 0 6 11 22 26 36 27 28 64 27 93 -1z m900 -1 c39
-33 41 -71 5 -108 -40 -39 -104 -30 -126 19 -9 21 -18 25 -52 25 -33 0 -47 -6
-69 -30 -33 -35 -64 -38 -95 -10 -43 40 -14 120 43 120 12 0 34 -13 50 -30 23
-24 37 -30 70 -30 34 0 44 5 54 24 27 49 76 57 120 20z m3181 10 c0 -24 -27
-106 -45 -134 -55 -86 -121 -117 -269 -127 l-106 -6 0 41 0 42 84 0 c46 0 98
3 116 7 43 8 106 71 115 114 14 69 14 69 61 69 24 0 44 -3 44 -6z m586 -41
c-11 -86 -74 -162 -161 -199 -20 -8 -85 -17 -145 -21 l-110 -6 0 41 0 40 108
4 c96 3 113 6 145 28 43 30 77 86 77 129 0 30 1 31 46 31 l47 0 -7 -47z
m-1206 -183 l0 -40 -195 0 -195 0 0 40 0 40 195 0 195 0 0 -40z m-3465 -56
c33 -36 31 -51 -10 -90 -46 -43 -48 -85 -6 -110 29 -17 51 -51 51 -80 0 -24
-56 -74 -82 -74 -13 0 -36 11 -51 24 -23 20 -28 31 -25 63 2 30 10 42 35 58
27 17 32 26 33 57 0 29 -5 40 -22 49 -30 16 -38 28 -38 61 0 33 35 68 67 68
13 0 35 -12 48 -26z m660 0 c33 -36 31 -51 -10 -90 -33 -31 -35 -36 -35 -98
l0 -66 -105 0 -104 0 -16 -30 c-11 -21 -25 -31 -52 -36 -43 -8 -61 2 -86 45
-18 30 -18 32 0 63 32 56 107 54 140 -3 17 -29 18 -29 115 -29 l98 0 0 65 c0
60 -2 66 -25 77 -30 14 -47 57 -32 84 28 50 76 57 112 18z"/>
</g>
</svg>
